Monda-Regular.ufo
<glyph name="asterisk" format="1">
  <advance width="1024"/>
  <unicode hex="002A"/>
  <outline>
    <contour>
      <point x="356" y="599" type="line"/>
      <point x="534" y="599" type="line"/>
      <point x="554" y="912" type="line"/>
      <point x="771" y="722" type="line"/>
      <point x="891" y="875" type="line"/>
      <point x="633" y="1017" type="line"/>
      <point x="943" y="1134" type="line"/>
      <point x="887" y="1295" type="line"/>
      <point x="587" y="1121" type="line"/>
      <point x="668" y="1446" type="line"/>
      <point x="490" y="1446" type="line"/>
      <point x="469" y="1133" type="line"/>
      <point x="252" y="1323" type="line"/>
      <point x="132" y="1170" type="line"/>
      <point x="390" y="1028" type="line"/>
      <point x="81" y="911" type="line"/>
      <point x="136" y="750" type="line"/>
      <point x="436" y="924" type="line"/>
    </contour>
  </outline>
</glyph>
<glyph name="five" format="1">
  <advance width="1250"/>
  <unicode hex="0035"/>
  <outline>
    <contour>
      <point x="516" y="-22" type="curve" smooth="yes"/>
      <point x="808" y="-22"/>
      <point x="1031" y="169"/>
      <point x="1075" y="449" type="curve" smooth="yes"/>
      <point x="1120" y="734"/>
      <point x="1000" y="911"/>
      <point x="701" y="911" type="curve" smooth="yes"/>
      <point x="600" y="911"/>
      <point x="495" y="877"/>
      <point x="423" y="819" type="curve"/>
      <point x="538" y="1281" type="line"/>
      <point x="1114" y="1281" type="line"/>
      <point x="1140" y="1446" type="line"/>
      <point x="403" y="1446" type="line"/>
      <point x="236" y="712" type="line"/>
      <point x="372" y="652" type="line"/>
      <point x="487" y="727"/>
      <point x="554" y="762"/>
      <point x="653" y="762" type="curve" smooth="yes"/>
      <point x="853" y="762"/>
      <point x="916" y="633"/>
      <point x="885" y="439" type="curve" smooth="yes"/>
      <point x="854" y="246"/>
      <point x="722" y="140"/>
      <point x="533" y="140" type="curve" smooth="yes"/>
      <point x="329" y="140"/>
      <point x="247" y="191"/>
      <point x="154" y="260" type="curve"/>
      <point x="77" y="107" type="line"/>
      <point x="172" y="46"/>
      <point x="292" y="-22"/>
    </contour>
  </outline>
</glyph>
<glyph name="question" format="1">
  <advance width="1240"/>
  <unicode hex="003F"/>
  <outline>
    <contour>
      <point x="418" y="431" type="line"/>
      <point x="578" y="431" type="line"/>
      <point x="821" y="650" type="line" smooth="yes"/>
      <point x="1002" y="814"/>
      <point x="1127" y="931"/>
      <point x="1156" y="1114" type="curve" smooth="yes"/>
      <point x="1182" y="1277"/>
      <point x="1121" y="1468"/>
      <point x="773" y="1468" type="curve" smooth="yes"/>
      <point x="432" y="1468"/>
      <point x="280" y="1374"/>
      <point x="232" y="1071" type="curve" smooth="yes"/>
      <point x="227" y="1039" type="line"/>
      <point x="424" y="1039" type="line"/>
      <point x="433" y="1092" type="line" smooth="yes"/>
      <point x="454" y="1225"/>
      <point x="532" y="1306"/>
      <point x="748" y="1306" type="curve" smooth="yes"/>
      <point x="927" y="1306"/>
      <point x="960" y="1222"/>
      <point x="941" y="1103" type="curve" smooth="yes"/>
      <point x="923" y="986"/>
      <point x="853" y="909"/>
      <point x="750" y="795" type="curve" smooth="yes"/>
    </contour>
    <contour>
      <point x="324" y="0" type="line"/>
      <point x="528" y="0" type="line"/>
      <point x="560" y="206" type="line"/>
      <point x="356" y="206" type="line"/>
    </contour>
  </outline>
</glyph>
<glyph name="F" format="1">
  <advance width="1159"/>
  <unicode hex="0046"/>
  <outline>
    <contour>
      <point x="103" y="0" type="line"/>
      <point x="304" y="0" type="line"/>
      <point x="410" y="664" type="line"/>
      <point x="994" y="664" type="line"/>
      <point x="1017" y="814" type="line"/>
      <point x="433" y="814" type="line"/>
      <point x="510" y="1296" type="line"/>
      <point x="1130" y="1296" type="line"/>
      <point x="1154" y="1446" type="line"/>
      <point x="333" y="1446" type="line"/>
    </contour>
    <contour>
      <point x="771" y="1446" type="move" name="top"/>
    </contour>
  </outline>
</glyph>
<glyph name="I" format="1">
  <advance width="1132"/>
  <unicode hex="0049"/>
  <outline>
    <contour>
      <point x="75" y="0" type="line"/>
      <point x="827" y="0" type="line"/>
      <point x="851" y="150" type="line"/>
      <point x="576" y="150" type="line"/>
      <point x="758" y="1297" type="line"/>
      <point x="1033" y="1297" type="line"/>
      <point x="1057" y="1446" type="line"/>
      <point x="305" y="1446" type="line"/>
      <point x="281" y="1297" type="line"/>
      <point x="557" y="1297" type="line"/>
      <point x="375" y="150" type="line"/>
      <point x="99" y="150" type="line"/>
    </contour>
    <contour>
      <point x="526" y="0" type="move" name="ogonek"/>
    </contour>
    <contour>
      <point x="683" y="1446" type="move" name="top"/>
    </contour>
  </outline>
</glyph>
<glyph name="K" format="1">
  <advance width="1418"/>
  <unicode hex="004B"/>
  <outline>
    <contour>
      <point x="103" y="0" type="line"/>
      <point x="304" y="0" type="line"/>
      <point x="379" y="468" type="line"/>
      <point x="632" y="690" type="line"/>
      <point x="1012" y="0" type="line"/>
      <point x="1235" y="0" type="line"/>
      <point x="790" y="798" type="line"/>
      <point x="1436" y="1446" type="line"/>
      <point x="1218" y="1446" type="line"/>
      <point x="948" y="1183"/>
      <point x="673" y="927"/>
      <point x="409" y="657" type="curve"/>
      <point x="534" y="1446" type="line"/>
      <point x="333" y="1446" type="line"/>
    </contour>
    <contour>
      <point x="594" y="0" type="move" name="bot"/>
    </contour>
    <contour>
      <point x="848" y="1446" type="move" name="top"/>
    </contour>
  </outline>
</glyph>
<glyph name="O" format="1">
  <advance width="1546"/>
  <unicode hex="004F"/>
  <outline>
    <contour>
      <point x="690" y="140" type="curve" smooth="yes"/>
      <point x="434" y="140"/>
      <point x="305" y="199"/>
      <point x="346" y="455" type="curve" smooth="yes"/>
      <point x="428" y="978" type="line" smooth="yes"/>
      <point x="469" y="1235"/>
      <point x="620" y="1306"/>
      <point x="874" y="1306" type="curve" smooth="yes"/>
      <point x="1130" y="1306"/>
      <point x="1240" y="1235"/>
      <point x="1199" y="978" type="curve" smooth="yes"/>
      <point x="1117" y="455" type="line" smooth="yes"/>
      <point x="1076" y="199"/>
      <point x="948" y="140"/>
    </contour>
    <contour>
      <point x="664" y="-22" type="curve" smooth="yes"/>
      <point x="1129" y="-22"/>
      <point x="1278" y="203"/>
      <point x="1325" y="500" type="curve" smooth="yes"/>
      <point x="1392" y="928" type="line" smooth="yes"/>
      <point x="1441" y="1234"/>
      <point x="1367" y="1468"/>
      <point x="900" y="1468" type="curve" smooth="yes"/>
      <point x="415" y="1468"/>
      <point x="269" y="1247"/>
      <point x="221" y="941" type="curve" smooth="yes"/>
      <point x="148" y="486" type="line" smooth="yes"/>
      <point x="101" y="185"/>
      <point x="181" y="-22"/>
    </contour>
    <contour>
      <point x="667" y="0" type="move" name="bot"/>
    </contour>
    <contour>
      <point x="703" y="0" type="move" name="ogonek"/>
    </contour>
    <contour>
      <point x="897" y="1446" type="move" name="top"/>
    </contour>
  </outline>
</glyph>
<glyph name="P" format="1">
  <advance width="1326"/>
  <unicode hex="0050"/>
  <outline>
    <contour>
      <point x="103" y="0" type="line"/>
      <point x="305" y="0" type="line"/>
      <point x="389" y="529" type="line"/>
      <point x="762" y="529" type="line" smooth="yes"/>
      <point x="1008" y="529"/>
      <point x="1186" y="645"/>
      <point x="1240" y="991" type="curve" smooth="yes"/>
      <point x="1293" y="1320"/>
      <point x="1154" y="1446"/>
      <point x="911" y="1446" type="curve" smooth="yes"/>
      <point x="333" y="1446" type="line"/>
    </contour>
    <contour>
      <point x="414" y="682" type="line"/>
      <point x="510" y="1293" type="line"/>
      <point x="892" y="1293" type="line" smooth="yes"/>
      <point x="1073" y="1293"/>
      <point x="1059" y="1118"/>
      <point x="1036" y="977" type="curve" smooth="yes"/>
      <point x="1013" y="828"/>
      <point x="966" y="682"/>
      <point x="791" y="682" type="curve" smooth="yes"/>
    </contour>
    <contour>
      <point x="831" y="1446" type="move" name="top"/>
    </contour>
  </outline>
</glyph>
<glyph name="Q" format="1">
  <advance width="1542"/>
  <unicode hex="0051"/>
  <outline>
    <contour>
      <point x="797" y="-384" type="line"/>
      <point x="950" y="-308" type="line"/>
      <point x="807" y="-17" type="line"/>
      <point x="1183" y="18"/>
      <point x="1310" y="229"/>
      <point x="1353" y="500" type="curve" smooth="yes"/>
      <point x="1421" y="928" type="line" smooth="yes"/>
      <point x="1470" y="1234"/>
      <point x="1396" y="1468"/>
      <point x="929" y="1468" type="curve" smooth="yes"/>
      <point x="444" y="1468"/>
      <point x="298" y="1247"/>
      <point x="249" y="941" type="curve" smooth="yes"/>
      <point x="177" y="486" type="line" smooth="yes"/>
      <point x="132" y="200"/>
      <point x="202" y="-2"/>
      <point x="625" y="-21" type="curve"/>
    </contour>
    <contour>
      <point x="718" y="140" type="curve" smooth="yes"/>
      <point x="462" y="140"/>
      <point x="334" y="199"/>
      <point x="374" y="455" type="curve" smooth="yes"/>
      <point x="457" y="978" type="line" smooth="yes"/>
      <point x="498" y="1235"/>
      <point x="649" y="1306"/>
      <point x="903" y="1306" type="curve" smooth="yes"/>
      <point x="1159" y="1306"/>
      <point x="1269" y="1235"/>
      <point x="1228" y="978" type="curve" smooth="yes"/>
      <point x="1145" y="455" type="line" smooth="yes"/>
      <point x="1105" y="199"/>
      <point x="976" y="140"/>
    </contour>
  </outline>
</glyph>
<glyph name="bracketleft" format="1">
  <advance width="768"/>
  <unicode hex="005B"/>
  <outline>
    <contour>
      <point x="129" y="-76" type="line"/>
      <point x="507" y="-76" type="line"/>
      <point x="528" y="58" type="line"/>
      <point x="338" y="58" type="line"/>
      <point x="550" y="1396" type="line"/>
      <point x="740" y="1396" type="line"/>
      <point x="761" y="1529" type="line"/>
      <point x="383" y="1529" type="line"/>
    </contour>
  </outline>
</glyph>
<glyph name="underscore" format="1">
  <advance width="929"/>
  <unicode hex="005F"/>
  <outline>
    <contour>
      <point x="2" y="-104" type="line"/>
      <point x="903" y="-104" type="line"/>
      <point x="927" y="46" type="line"/>
      <point x="26" y="46" type="line"/>
    </contour>
  </outline>
</glyph>
<glyph name="grave" format="1">
  <advance width="616"/>
  <unicode hex="0060"/>
  <outline>
    <contour>
      <point x="55" y="1585" type="line"/>
      <point x="230" y="1204" type="line"/>
      <point x="358" y="1204" type="line"/>
      <point x="280" y="1585" type="line"/>
    </contour>
    <contour>
      <point x="286" y="1060" type="move" name="_top"/>
    </contour>
  </outline>
</glyph>
<glyph name="e" format="1">
  <advance width="1138"/>
  <unicode hex="0065"/>
  <outline>
    <contour>
      <point x="502" y="-22" type="curve" smooth="yes"/>
      <point x="796" y="-22"/>
      <point x="899" y="32"/>
      <point x="965" y="282" type="curve"/>
      <point x="799" y="282" type="line"/>
      <point x="758" y="122"/>
      <point x="702" y="122"/>
      <point x="525" y="122" type="curve" smooth="yes"/>
      <point x="325" y="122"/>
      <point x="282" y="185"/>
      <point x="309" y="357" type="curve" smooth="yes"/>
      <point x="332" y="506" type="line"/>
      <point x="1002" y="506" type="line"/>
      <point x="1042" y="758" type="line" smooth="yes"/>
      <point x="1074" y="959"/>
      <point x="960" y="1080"/>
      <point x="669" y="1080" type="curve" smooth="yes"/>
      <point x="365" y="1080"/>
      <point x="214" y="943"/>
      <point x="182" y="743" type="curve" smooth="yes"/>
      <point x="123" y="374" type="line" smooth="yes"/>
      <point x="82" y="110"/>
      <point x="186" y="-22"/>
    </contour>
    <contour>
      <point x="352" y="633" type="line"/>
      <point x="373" y="760" type="line" smooth="yes"/>
      <point x="393" y="891"/>
      <point x="496" y="936"/>
      <point x="646" y="936" type="curve" smooth="yes"/>
      <point x="791" y="936"/>
      <point x="884" y="906"/>
      <point x="863" y="778" type="curve" smooth="yes"/>
      <point x="840" y="633" type="line"/>
    </contour>
    <contour>
      <point x="505" y="0" type="move" name="bot"/>
    </contour>
    <contour>
      <point x="613" y="0" type="move" name="ogonek"/>
    </contour>
    <contour>
      <point x="668" y="1060" type="move" name="top"/>
    </contour>
  </outline>
</glyph>
<glyph name="m" format="1">
  <advance width="1860"/>
  <unicode hex="006D"/>
  <outline>
    <contour>
      <point x="100" y="0" type="line"/>
      <point x="288" y="0" type="line"/>
      <point x="408" y="755" type="line" smooth="yes"/>
      <point x="424" y="857"/>
      <point x="509" y="936"/>
      <point x="693" y="936" type="curve" smooth="yes"/>
      <point x="824" y="936"/>
      <point x="899" y="886"/>
      <point x="882" y="781" type="curve" smooth="yes"/>
      <point x="758" y="0" type="line"/>
      <point x="946" y="0" type="line"/>
      <point x="1066" y="755" type="line" smooth="yes"/>
      <point x="1082" y="857"/>
      <point x="1167" y="936"/>
      <point x="1351" y="936" type="curve" smooth="yes"/>
      <point x="1482" y="936"/>
      <point x="1551" y="886"/>
      <point x="1534" y="781" type="curve" smooth="yes"/>
      <point x="1410" y="0" type="line"/>
      <point x="1598" y="0" type="line"/>
      <point x="1720" y="770" type="line" smooth="yes"/>
      <point x="1747" y="938"/>
      <point x="1683" y="1080"/>
      <point x="1422" y="1080" type="curve" smooth="yes"/>
      <point x="1268" y="1080"/>
      <point x="1160" y="1031"/>
      <point x="1053" y="941" type="curve"/>
      <point x="1016" y="1024"/>
      <point x="928" y="1080"/>
      <point x="764" y="1080" type="curve" smooth="yes"/>
      <point x="610" y="1080"/>
      <point x="513" y="1029"/>
      <point x="440" y="957" type="curve"/>
      <point x="456" y="1060" type="line"/>
      <point x="268" y="1060" type="line"/>
    </contour>
    <contour>
      <point x="1076" y="1060" type="move" name="top"/>
    </contour>
  </outline>
</glyph>
<glyph name="n" format="1">
  <advance width="1224"/>
  <unicode hex="006E"/>
  <outline>
    <contour>
      <point x="100" y="0" type="line"/>
      <point x="288" y="0" type="line"/>
      <point x="408" y="755" type="line" smooth="yes"/>
      <point x="424" y="857"/>
      <point x="519" y="936"/>
      <point x="703" y="936" type="curve" smooth="yes"/>
      <point x="834" y="936"/>
      <point x="917" y="886"/>
      <point x="900" y="781" type="curve" smooth="yes"/>
      <point x="776" y="0" type="line"/>
      <point x="964" y="0" type="line"/>
      <point x="1086" y="770" type="line" smooth="yes"/>
      <point x="1113" y="938"/>
      <point x="1035" y="1080"/>
      <point x="774" y="1080" type="curve" smooth="yes"/>
      <point x="620" y="1080"/>
      <point x="513" y="1029"/>
      <point x="440" y="957" type="curve"/>
      <point x="456" y="1060" type="line"/>
      <point x="268" y="1060" type="line"/>
    </contour>
    <contour>
      <point x="527" y="0" type="move" name="bot"/>
    </contour>
    <contour>
      <point x="766" y="1060" type="move" name="top"/>
    </contour>
  </outline>
</glyph>
<glyph name="r" format="1">
  <advance width="798"/>
  <unicode hex="0072"/>
  <outline>
    <contour>
      <point x="101" y="0" type="line"/>
      <point x="289" y="0" type="line"/>
      <point x="403" y="722" type="line" smooth="yes"/>
      <point x="420" y="828"/>
      <point x="615" y="914"/>
      <point x="796" y="914" type="curve"/>
      <point x="827" y="1075" type="line"/>
      <point x="687" y="1075"/>
      <point x="503" y="1027"/>
      <point x="430" y="890" type="curve"/>
      <point x="457" y="1060" type="line"/>
      <point x="269" y="1060" type="line"/>
    </contour>
    <contour>
      <point x="201" y="0" type="move" name="bot"/>
    </contour>
    <contour>
      <point x="560" y="1060" type="move" name="top"/>
    </contour>
  </outline>
</glyph>
<glyph name="v" format="1">
  <advance width="1104"/>
  <unicode hex="0076"/>
  <outline>
    <contour>
      <point x="391" y="0" type="line"/>
      <point x="581" y="0" type="line"/>
      <point x="1124" y="1060" type="line"/>
      <point x="940" y="1060" type="line"/>
      <point x="520" y="200" type="line"/>
      <point x="337" y="1060" type="line"/>
      <point x="148" y="1060" type="line"/>
    </contour>
  </outline>
</glyph>
<glyph name="w" format="1">
  <advance width="1614"/>
  <unicode hex="0077"/>
  <outline>
    <contour>
      <point x="273" y="0" type="line"/>
      <point x="451" y="0" type="line"/>
      <point x="856" y="845" type="line"/>
      <point x="993" y="0" type="line"/>
      <point x="1168" y="0" type="line"/>
      <point x="1646" y="1060" type="line"/>
      <point x="1472" y="1060" type="line"/>
      <point x="1113" y="228" type="line"/>
      <point x="979" y="1060" type="line"/>
      <point x="798" y="1060" type="line"/>
      <point x="411" y="228" type="line"/>
      <point x="308" y="1060" type="line"/>
      <point x="136" y="1060" type="line"/>
    </contour>
    <contour>
      <point x="896" y="1060" type="move" name="top"/>
    </contour>
  </outline>
</glyph>
<glyph name="bar" format="1">
  <advance width="690"/>
  <unicode hex="007C"/>
  <outline>
    <contour>
      <point x="120" y="-167" type="line"/>
      <point x="298" y="-167" type="line"/>
      <point x="570" y="1555" type="line"/>
      <point x="392" y="1555" type="line"/>
    </contour>
  </outline>
</glyph>
<glyph name="braceright" format="1">
  <advance width="952"/>
  <unicode hex="007D"/>
  <outline>
    <contour>
      <point x="-8" y="-207" type="line"/>
      <point x="468" y="-207"/>
      <point x="498" y="-42"/>
      <point x="545" y="253" type="curve"/>
      <point x="552" y="294" type="line"/>
      <point x="601" y="608"/>
      <point x="668" y="574"/>
      <point x="824" y="574" type="curve"/>
      <point x="848" y="725" type="line"/>
      <point x="692" y="725"/>
      <point x="615" y="691"/>
      <point x="664" y="1005" type="curve"/>
      <point x="671" y="1046" type="line"/>
      <point x="718" y="1341"/>
      <point x="739" y="1506"/>
      <point x="264" y="1506" type="curve"/>
      <point x="240" y="1355" type="line"/>
      <point x="522" y="1355"/>
      <point x="519" y="1297"/>
      <point x="482" y="1064" type="curve"/>
      <point x="472" y="1002" type="line"/>
      <point x="445" y="830"/>
      <point x="452" y="686"/>
      <point x="520" y="649" type="curve"/>
      <point x="440" y="613"/>
      <point x="387" y="469"/>
      <point x="360" y="297" type="curve"/>
      <point x="350" y="235" type="line"/>
      <point x="313" y="2"/>
      <point x="299" y="-56"/>
      <point x="16" y="-56" type="curve"/>
    </contour>
  </outline>
</glyph>
<glyph name="asciitilde" format="1">
  <advance width="881"/>
  <unicode hex="007E"/>
  <outline>
    <contour>
      <point x="578" y="1173" type="curve" smooth="yes"/>
      <point x="698" y="1173"/>
      <point x="812" y="1287"/>
      <point x="838" y="1452" type="curve"/>
      <point x="741" y="1452" type="line"/>
      <point x="731" y="1390"/>
      <point x="691" y="1319"/>
      <point x="610" y="1319" type="curve" smooth="yes"/>
      <point x="539" y="1319"/>
      <point x="440" y="1466"/>
      <point x="303" y="1466" type="curve" smooth="yes"/>
      <point x="183" y="1466"/>
      <point x="69" y="1352"/>
      <point x="43" y="1187" type="curve"/>
      <point x="140" y="1187" type="line"/>
      <point x="150" y="1249"/>
      <point x="190" y="1320"/>
      <point x="271" y="1320" type="curve" smooth="yes"/>
      <point x="342" y="1320"/>
      <point x="441" y="1173"/>
    </contour>
  </outline>
</glyph>
<glyph name="brokenbar" format="1">
  <advance width="674"/>
  <unicode hex="00A6"/>
  <outline>
    <contour>
      <point x="118" y="-167" type="line"/>
      <point x="296" y="-167" type="line"/>
      <point x="403" y="513" type="line"/>
      <point x="225" y="513" type="line"/>
    </contour>
    <contour>
      <point x="278" y="848" type="line"/>
      <point x="456" y="848" type="line"/>
      <point x="568" y="1555" type="line"/>
      <point x="390" y="1555" type="line"/>
    </contour>
  </outline>
</glyph>
<glyph name="section" format="1">
  <advance width="1002"/>
  <unicode hex="00A7"/>
  <outline>
    <contour>
      <point x="40" y="64" type="line"/>
      <point x="85" y="37"/>
      <point x="220" y="-22"/>
      <point x="424" y="-22" type="curve" smooth="yes"/>
      <point x="683" y="-22"/>
      <point x="804" y="116"/>
      <point x="830" y="283" type="curve" smooth="yes"/>
      <point x="845" y="376"/>
      <point x="844" y="439"/>
      <point x="809" y="487" type="curve"/>
      <point x="854" y="539"/>
      <point x="881" y="602"/>
      <point x="892" y="671" type="curve" smooth="yes"/>
      <point x="918" y="836"/>
      <point x="894" y="903"/>
      <point x="722" y="973" type="curve" smooth="yes"/>
      <point x="480" y="1071" type="line" smooth="yes"/>
      <point x="412" y="1099"/>
      <point x="395" y="1121"/>
      <point x="405" y="1184" type="curve" smooth="yes"/>
      <point x="421" y="1283"/>
      <point x="458" y="1324"/>
      <point x="637" y="1324" type="curve" smooth="yes"/>
      <point x="728" y="1324"/>
      <point x="856" y="1291"/>
      <point x="915" y="1266" type="curve"/>
      <point x="983" y="1410" type="line"/>
      <point x="907" y="1441"/>
      <point x="777" y="1468"/>
      <point x="624" y="1468" type="curve" smooth="yes"/>
      <point x="354" y="1468"/>
      <point x="252" y="1358"/>
      <point x="223" y="1178" type="curve" smooth="yes"/>
      <point x="210" y="1097"/>
      <point x="221" y="1041"/>
      <point x="266" y="997" type="curve"/>
      <point x="205" y="946"/>
      <point x="176" y="880"/>
      <point x="162" y="792" type="curve" smooth="yes"/>
      <point x="141" y="658"/>
      <point x="184" y="593"/>
      <point x="335" y="536" type="curve" smooth="yes"/>
      <point x="580" y="443" type="line" smooth="yes"/>
      <point x="677" y="406"/>
      <point x="679" y="363"/>
      <point x="666" y="281" type="curve" smooth="yes"/>
      <point x="652" y="192"/>
      <point x="593" y="122"/>
      <point x="421" y="122" type="curve" smooth="yes"/>
      <point x="273" y="122"/>
      <point x="153" y="176"/>
      <point x="108" y="202" type="curve"/>
    </contour>
    <contour>
      <point x="722" y="637"/>
      <point x="711" y="602"/>
      <point x="692" y="571" type="curve"/>
      <point x="419" y="683" type="line" smooth="yes"/>
      <point x="350" y="711"/>
      <point x="335" y="742"/>
      <point x="345" y="806" type="curve" smooth="yes"/>
      <point x="352" y="849"/>
      <point x="386" y="924"/>
      <point x="397" y="924" type="curve"/>
      <point x="641" y="831" type="line" smooth="yes"/>
      <point x="738" y="794"/>
      <point x="740" y="751"/>
      <point x="727" y="669" type="curve" smooth="yes"/>
    </contour>
  </outline>
</glyph>
<glyph name="dieresis" format="1">
  <advance width="1025"/>
  <unicode hex="00A8"/>
  <outline>
    <contour>
      <point x="144" y="1343" type="line"/>
      <point x="350" y="1343" type="line"/>
      <point x="378" y="1524" type="line"/>
      <point x="172" y="1524" type="line"/>
    </contour>
    <contour>
      <point x="647" y="1343" type="line"/>
      <point x="853" y="1343" type="line"/>
      <point x="881" y="1524" type="line"/>
      <point x="675" y="1524" type="line"/>
    </contour>
    <contour>
      <point x="454" y="1060" type="move" name="_top"/>
    </contour>
  </outline>
</glyph>
<glyph name="logicalnot" format="1">
  <advance width="864"/>
  <unicode hex="00AC"/>
  <outline>
    <contour>
      <point x="561" y="333" type="line"/>
      <point x="693" y="333" type="line"/>
      <point x="749" y="692" type="line"/>
      <point x="126" y="692" type="line"/>
      <point x="105" y="556" type="line"/>
      <point x="596" y="556" type="line"/>
    </contour>
  </outline>
</glyph>
<glyph name="threesuperior" format="1">
  <advance width="1050"/>
  <unicode hex="00B3"/>
  <outline>
    <contour>
      <point x="158" y="729"/>
      <point x="281" y="666"/>
      <point x="484" y="666" type="curve"/>
      <point x="667" y="666"/>
      <point x="808" y="748"/>
      <point x="836" y="925" type="curve"/>
      <point x="856" y="1051"/>
      <point x="810" y="1118"/>
      <point x="694" y="1144" type="curve"/>
      <point x="817" y="1173"/>
      <point x="870" y="1249"/>
      <point x="885" y="1345" type="curve"/>
      <point x="910" y="1503"/>
      <point x="783" y="1584"/>
      <point x="631" y="1584" type="curve"/>
      <point x="453" y="1584"/>
      <point x="290" y="1532"/>
      <point x="252" y="1289" type="curve"/>
      <point x="381" y="1289" type="line"/>
      <point x="401" y="1443"/>
      <point x="481" y="1475"/>
      <point x="610" y="1475" type="curve"/>
      <point x="733" y="1475"/>
      <point x="769" y="1410"/>
      <point x="759" y="1343" type="curve"/>
      <point x="745" y="1257"/>
      <point x="729" y="1193"/>
      <point x="483" y="1194" type="curve"/>
      <point x="466" y="1089" type="line"/>
      <point x="685" y="1090"/>
      <point x="728" y="1042"/>
      <point x="708" y="918" type="curve"/>
      <point x="694" y="826"/>
      <point x="608" y="774"/>
      <point x="506" y="774" type="curve"/>
      <point x="383" y="774"/>
      <point x="295" y="797"/>
      <point x="321" y="971" type="curve"/>
      <point x="190" y="971" type="line"/>
    </contour>
  </outline>
</glyph>
<glyph name="acute" format="1">
  <advance width="616"/>
  <unicode hex="00B4"/>
  <outline>
    <contour>
      <point x="174" y="1204" type="line"/>
      <point x="302" y="1204" type="line"/>
      <point x="597" y="1585" type="line"/>
      <point x="372" y="1585" type="line"/>
    </contour>
    <contour>
      <point x="200" y="1060" type="move" name="_top"/>
    </contour>
  </outline>
</glyph>
<glyph name="periodcentered" format="1">
  <advance width="734"/>
  <unicode hex="00B7"/>
  <outline>
    <contour>
      <point x="413" y="622" type="line"/>
      <point x="618" y="622" type="line"/>
      <point x="650" y="828" type="line"/>
      <point x="445" y="828" type="line"/>
    </contour>
    <contour>
      <point x="103" y="714" type="move" name="_mid"/>
    </contour>
  </outline>
</glyph>
<glyph name="onehalf" format="1">
  <advance width="2047"/>
  <unicode hex="00BD"/>
  <outline>
    <contour>
      <point x="1252" y="2" type="line"/>
      <point x="1764" y="2" type="line"/>
      <point x="1780" y="101" type="line"/>
      <point x="1409" y="101" type="line"/>
      <point x="1660" y="339" type="line" smooth="yes"/>
      <point x="1756" y="431"/>
      <point x="1838" y="495"/>
      <point x="1859" y="625" type="curve" smooth="yes"/>
      <point x="1880" y="758"/>
      <point x="1813" y="867"/>
      <point x="1632" y="867" type="curve" smooth="yes"/>
      <point x="1463" y="867"/>
      <point x="1338" y="789"/>
      <point x="1309" y="605" type="curve"/>
      <point x="1426" y="605" type="line"/>
      <point x="1447" y="741"/>
      <point x="1496" y="765"/>
      <point x="1618" y="765" type="curve" smooth="yes"/>
      <point x="1721" y="765"/>
      <point x="1757" y="719"/>
      <point x="1742" y="624" type="curve" smooth="yes"/>
      <point x="1729" y="542"/>
      <point x="1687" y="503"/>
      <point x="1589" y="413" type="curve"/>
      <point x="1256" y="94" type="line"/>
    </contour>
    <contour>
      <point x="148" y="654" type="line"/>
      <point x="784" y="654" type="line"/>
      <point x="800" y="755" type="line"/>
      <point x="569" y="755" type="line"/>
      <point x="688" y="1505" type="line"/>
      <point x="581" y="1505" type="line"/>
      <point x="284" y="1472" type="line"/>
      <point x="279" y="1368" type="line"/>
      <point x="540" y="1394" type="line"/>
      <point x="438" y="755" type="line"/>
      <point x="164" y="755" type="line"/>
    </contour>
    <contour>
      <point x="568" y="0" type="line"/>
      <point x="700" y="0" type="line"/>
      <point x="1607" y="1446" type="line"/>
      <point x="1481" y="1446" type="line"/>
    </contour>
  </outline>
</glyph>
<glyph name="multiply" format="1">
  <advance width="973"/>
  <unicode hex="00D7"/>
  <outline>
    <contour>
      <point x="182" y="216" type="line"/>
      <point x="468" y="458" type="line"/>
      <point x="678" y="216" type="line"/>
      <point x="807" y="344" type="line"/>
      <point x="608" y="576" type="line"/>
      <point x="880" y="806" type="line"/>
      <point x="792" y="937" type="line"/>
      <point x="506" y="694" type="line"/>
      <point x="296" y="937" type="line"/>
      <point x="165" y="806" type="line"/>
      <point x="366" y="576" type="line"/>
      <point x="92" y="344" type="line"/>
    </contour>
  </outline>
</glyph>
<glyph name="Oslash" format="1">
  <advance width="1546"/>
  <unicode hex="00D8"/>
  <outline>
    <contour>
      <point x="331" y="-195" type="line"/>
      <point x="1300" y="1638" type="line"/>
      <point x="1202" y="1676" type="line"/>
      <point x="234" y="-157" type="line"/>
    </contour>
    <component base="O"/>
    <contour>
      <point x="903" y="1446" type="move" name="top"/>
    </contour>
  </outline>
</glyph>
<glyph name="divide" format="1">
  <advance width="1025"/>
  <unicode hex="00F7"/>
  <outline>
    <contour>
      <point x="341" y="90" type="line"/>
      <point x="546" y="90" type="line"/>
      <point x="579" y="299" type="line"/>
      <point x="374" y="299" type="line"/>
    </contour>
    <contour>
      <point x="89" y="472" type="line"/>
      <point x="914" y="472" type="line"/>
      <point x="935" y="609" type="line"/>
      <point x="110" y="609" type="line"/>
    </contour>
    <contour>
      <point x="452" y="787" type="line"/>
      <point x="657" y="787" type="line"/>
      <point x="690" y="996" type="line"/>
      <point x="485" y="996" type="line"/>
    </contour>
  </outline>
</glyph>
<glyph name="oslash" format="1">
  <advance width="1174"/>
  <unicode hex="00F8"/>
  <outline>
    <contour>
      <point x="246" y="-226" type="line"/>
      <point x="1013" y="1220" type="line"/>
      <point x="928" y="1251" type="line"/>
      <point x="159" y="-195" type="line"/>
    </contour>
    <component base="o"/>
    <contour>
      <point x="674" y="1060" type="move" name="top"/>
    </contour>
  </outline>
</glyph>
<glyph name="thorn" format="1">
  <advance width="1194"/>
  <unicode hex="00FE"/>
  <outline>
    <contour>
      <point x="25" y="-408" type="line"/>
      <point x="213" y="-408" type="line"/>
      <point x="283" y="34" type="line"/>
      <point x="330" y="8"/>
      <point x="405" y="-24"/>
      <point x="524" y="-24" type="curve" smooth="yes"/>
      <point x="800" y="-24"/>
      <point x="978" y="131"/>
      <point x="1012" y="344" type="curve" smooth="yes"/>
      <point x="1073" y="729" type="line" smooth="yes"/>
      <point x="1105" y="933"/>
      <point x="993" y="1076"/>
      <point x="722" y="1076" type="curve" smooth="yes"/>
      <point x="613" y="1076"/>
      <point x="503" y="1039"/>
      <point x="435" y="994" type="curve"/>
      <point x="517" y="1506" type="line"/>
      <point x="331" y="1506" type="line"/>
    </contour>
    <contour>
      <point x="535" y="117" type="curve" smooth="yes"/>
      <point x="426" y="117"/>
      <point x="350" y="152"/>
      <point x="306" y="179" type="curve"/>
      <point x="409" y="824" type="line"/>
      <point x="430" y="850"/>
      <point x="538" y="934"/>
      <point x="671" y="934" type="curve" smooth="yes"/>
      <point x="809" y="934"/>
      <point x="907" y="869"/>
      <point x="887" y="742" type="curve" smooth="yes"/>
      <point x="820" y="324" type="line" smooth="yes"/>
      <point x="800" y="194"/>
      <point x="683" y="117"/>
    </contour>
  </outline>
</glyph>
<glyph name="dotlessi" format="1">
  <advance width="556"/>
  <unicode hex="0131"/>
  <outline>
    <contour>
      <point x="108" y="0" type="line"/>
      <point x="296" y="0" type="line"/>
      <point x="464" y="1060" type="line"/>
      <point x="276" y="1060" type="line"/>
    </contour>
    <contour>
      <point x="220" y="0" type="move" name="ogonek"/>
    </contour>
    <contour>
      <point x="379" y="1060" type="move" name="top"/>
    </contour>
  </outline>
</glyph>
<glyph name="breve" format="1">
  <advance width="512"/>
  <unicode hex="02D8"/>
  <outline>
    <contour>
      <point x="239" y="1294" type="curve" smooth="yes"/>
      <point x="378" y="1294"/>
      <point x="481" y="1391"/>
      <point x="499" y="1506" type="curve"/>
      <point x="373" y="1506" type="line"/>
      <point x="363" y="1446"/>
      <point x="309" y="1416"/>
      <point x="259" y="1416" type="curve" smooth="yes"/>
      <point x="209" y="1416"/>
      <point x="163" y="1446"/>
      <point x="173" y="1506" type="curve"/>
      <point x="47" y="1506" type="line"/>
      <point x="29" y="1391"/>
      <point x="100" y="1294"/>
    </contour>
    <contour>
      <point x="213" y="1060" type="move" name="_top"/>
    </contour>
  </outline>
</glyph>
<glyph name="Delta" format="1">
  <advance width="1428"/>
  <unicode hex="0394"/>
  <outline>
    <contour>
      <point x="46" y="0" type="line"/>
      <point x="1145" y="0" type="line"/>
      <point x="917" y="1446" type="line"/>
      <point x="740" y="1446" type="line"/>
    </contour>
    <contour>
      <point x="300" y="143" type="line"/>
      <point x="794" y="1196" type="line"/>
      <point x="944" y="143" type="line"/>
    </contour>
  </outline>
</glyph>
<glyph name="emdash" format="1">
  <advance width="1101"/>
  <unicode hex="2014"/>
  <outline>
    <contour>
      <point x="-10" y="402" type="line"/>
      <point x="1086" y="402" type="line"/>
      <point x="1110" y="548" type="line"/>
      <point x="14" y="548" type="line"/>
    </contour>
  </outline>
</glyph>
<glyph name="quotedblright" format="1">
  <advance width="1181"/>
  <unicode hex="201D"/>
  <outline>
    <contour>
      <point x="232" y="897" type="line"/>
      <point x="298" y="951"/>
      <point x="435" y="1094"/>
      <point x="465" y="1285" type="curve" smooth="yes"/>
      <point x="494" y="1468" type="line"/>
      <point x="237" y="1468" type="line"/>
      <point x="200" y="1235" type="line"/>
      <point x="341" y="1235" type="line"/>
      <point x="320" y="1103"/>
      <point x="213" y="996"/>
      <point x="158" y="941" type="curve"/>
    </contour>
    <contour>
      <point x="644" y="897" type="line"/>
      <point x="710" y="951"/>
      <point x="847" y="1094"/>
      <point x="877" y="1285" type="curve" smooth="yes"/>
      <point x="906" y="1468" type="line"/>
      <point x="649" y="1468" type="line"/>
      <point x="612" y="1235" type="line"/>
      <point x="753" y="1235" type="line"/>
      <point x="732" y="1103"/>
      <point x="625" y="996"/>
      <point x="570" y="941" type="curve"/>
    </contour>
  </outline>
</glyph>
<glyph name="perthousand" format="1">
  <advance width="2886"/>
  <unicode hex="2030"/>
  <outline>
    <contour>
      <point x="515" y="774" type="curve" smooth="yes"/>
      <point x="377" y="774"/>
      <point x="377" y="879"/>
      <point x="399" y="1020" type="curve" smooth="yes"/>
      <point x="414" y="1115" type="line" smooth="yes"/>
      <point x="436" y="1251"/>
      <point x="463" y="1345"/>
      <point x="606" y="1345" type="curve" smooth="yes"/>
      <point x="750" y="1345"/>
      <point x="748" y="1251"/>
      <point x="726" y="1113" type="curve" smooth="yes"/>
      <point x="711" y="1020" type="line" smooth="yes"/>
      <point x="689" y="879"/>
      <point x="653" y="774"/>
    </contour>
    <contour>
      <point x="497" y="658" type="curve" smooth="yes"/>
      <point x="727" y="658"/>
      <point x="823" y="808"/>
      <point x="859" y="1037" type="curve" smooth="yes"/>
      <point x="868" y="1091" type="line"/>
      <point x="903" y="1324"/>
      <point x="854" y="1461"/>
      <point x="624" y="1461" type="curve" smooth="yes"/>
      <point x="393" y="1461"/>
      <point x="304" y="1323"/>
      <point x="267" y="1090" type="curve" smooth="yes"/>
      <point x="259" y="1037" type="line" smooth="yes"/>
      <point x="223" y="809"/>
      <point x="267" y="658"/>
    </contour>
    <contour>
      <point x="1512" y="97" type="curve" smooth="yes"/>
      <point x="1374" y="97"/>
      <point x="1374" y="202"/>
      <point x="1396" y="343" type="curve" smooth="yes"/>
      <point x="1411" y="438" type="line" smooth="yes"/>
      <point x="1433" y="574"/>
      <point x="1460" y="668"/>
      <point x="1603" y="668" type="curve" smooth="yes"/>
      <point x="1747" y="668"/>
      <point x="1745" y="574"/>
      <point x="1723" y="436" type="curve" smooth="yes"/>
      <point x="1708" y="343" type="line" smooth="yes"/>
      <point x="1686" y="202"/>
      <point x="1650" y="97"/>
    </contour>
    <contour>
      <point x="1494" y="-19" type="curve" smooth="yes"/>
      <point x="1724" y="-19"/>
      <point x="1820" y="131"/>
      <point x="1856" y="360" type="curve" smooth="yes"/>
      <point x="1864" y="414" type="line"/>
      <point x="1899" y="647"/>
      <point x="1851" y="784"/>
      <point x="1621" y="784" type="curve" smooth="yes"/>
      <point x="1390" y="784"/>
      <point x="1301" y="646"/>
      <point x="1264" y="413" type="curve" smooth="yes"/>
      <point x="1256" y="360" type="line" smooth="yes"/>
      <point x="1220" y="132"/>
      <point x="1264" y="-19"/>
    </contour>
    <contour>
      <point x="2291" y="97" type="curve" smooth="yes"/>
      <point x="2153" y="97"/>
      <point x="2153" y="202"/>
      <point x="2175" y="343" type="curve" smooth="yes"/>
      <point x="2190" y="438" type="line" smooth="yes"/>
      <point x="2212" y="574"/>
      <point x="2239" y="668"/>
      <point x="2382" y="668" type="curve" smooth="yes"/>
      <point x="2526" y="668"/>
      <point x="2524" y="574"/>
      <point x="2502" y="436" type="curve" smooth="yes"/>
      <point x="2487" y="343" type="line" smooth="yes"/>
      <point x="2465" y="202"/>
      <point x="2429" y="97"/>
    </contour>
    <contour>
      <point x="2273" y="-19" type="curve" smooth="yes"/>
      <point x="2503" y="-19"/>
      <point x="2599" y="131"/>
      <point x="2635" y="360" type="curve" smooth="yes"/>
      <point x="2643" y="414" type="line"/>
      <point x="2678" y="647"/>
      <point x="2630" y="784"/>
      <point x="2400" y="784" type="curve" smooth="yes"/>
      <point x="2169" y="784"/>
      <point x="2080" y="646"/>
      <point x="2043" y="413" type="curve" smooth="yes"/>
      <point x="2035" y="360" type="line" smooth="yes"/>
      <point x="1999" y="132"/>
      <point x="2043" y="-19"/>
    </contour>
    <contour>
      <point x="591" y="0" type="line"/>
      <point x="745" y="0" type="line"/>
      <point x="1512" y="1446" type="line"/>
      <point x="1363" y="1446" type="line"/>
    </contour>
  </outline>
</glyph>
<glyph name="guilsinglright" format="1">
  <advance width="768"/>
  <unicode hex="203A"/>
  <outline>
    <contour>
      <point x="256" y="80" type="line"/>
      <point x="600" y="530" type="line"/>
      <point x="391" y="980" type="line"/>
      <point x="240" y="910" type="line"/>
      <point x="387" y="530" type="line"/>
      <point x="120" y="150" type="line"/>
    </contour>
  </outline>
</glyph>
<glyph name="product" format="1">
  <advance width="1792"/>
  <unicode hex="220F"/>
  <outline>
    <contour>
      <point x="596" y="319" type="line"/>
      <point x="727" y="319" type="line"/>
      <point x="780" y="652" type="line"/>
      <point x="958" y="652" type="line" smooth="yes"/>
      <point x="1178" y="652"/>
      <point x="1251" y="760"/>
      <point x="1272" y="894" type="curve" smooth="yes"/>
      <point x="1275" y="908" type="line"/>
      <point x="1298" y="1082"/>
      <point x="1207" y="1153"/>
      <point x="1050" y="1153" type="curve" smooth="yes"/>
      <point x="728" y="1153" type="line"/>
    </contour>
    <contour>
      <point x="794" y="742" type="line"/>
      <point x="845" y="1062" type="line"/>
      <point x="1040" y="1062" type="line" smooth="yes"/>
      <point x="1158" y="1062"/>
      <point x="1151" y="960"/>
      <point x="1142" y="901" type="curve" smooth="yes"/>
      <point x="1138" y="877" type="line"/>
      <point x="1127" y="814"/>
      <point x="1094" y="742"/>
      <point x="980" y="742" type="curve" smooth="yes"/>
    </contour>
    <contour>
      <point x="797" y="82" type="curve" smooth="yes"/>
      <point x="433" y="82"/>
      <point x="211" y="357"/>
      <point x="269" y="722" type="curve" smooth="yes"/>
      <point x="327" y="1086"/>
      <point x="635" y="1361"/>
      <point x="999" y="1361" type="curve" smooth="yes"/>
      <point x="1365" y="1361"/>
      <point x="1584" y="1086"/>
      <point x="1526" y="722" type="curve" smooth="yes"/>
      <point x="1468" y="357"/>
      <point x="1163" y="82"/>
    </contour>
    <contour>
      <point x="780" y="-14" type="curve" smooth="yes"/>
      <point x="1196" y="-14"/>
      <point x="1566" y="303"/>
      <point x="1632" y="722" type="curve" smooth="yes"/>
      <point x="1698" y="1139"/>
      <point x="1428" y="1456"/>
      <point x="1012" y="1456" type="curve" smooth="yes"/>
      <point x="599" y="1456"/>
      <point x="226" y="1139"/>
      <point x="160" y="722" type="curve" smooth="yes"/>
      <point x="94" y="303"/>
      <point x="367" y="-14"/>
    </contour>
  </outline>
</glyph>
<glyph name="summation" format="1">
  <advance width="1123"/>
  <unicode hex="2211"/>
  <outline>
    <contour>
      <point x="961" y="0" type="line"/>
      <point x="987" y="162" type="line"/>
      <point x="232" y="162" type="line"/>
      <point x="779" y="738" type="line"/>
      <point x="790" y="807" type="line"/>
      <point x="406" y="1286" type="line"/>
      <point x="1165" y="1286" type="line"/>
      <point x="1191" y="1446" type="line"/>
      <point x="227" y="1446" type="line"/>
      <point x="203" y="1298" type="line"/>
      <point x="603" y="762" type="line"/>
      <point x="22" y="155" type="line"/>
      <point x="-3" y="0" type="line"/>
    </contour>
  </outline>
</glyph>
<glyph name="approxequal" format="1">
  <advance width="881"/>
  <unicode hex="2248"/>
  <outline>
    <contour>
      <point x="556" y="635" type="curve" smooth="yes"/>
      <point x="676" y="635"/>
      <point x="785" y="719"/>
      <point x="811" y="884" type="curve"/>
      <point x="714" y="884" type="line"/>
      <point x="705" y="822"/>
      <point x="669" y="781"/>
      <point x="588" y="781" type="curve" smooth="yes"/>
      <point x="517" y="781"/>
      <point x="414" y="898"/>
      <point x="277" y="898" type="curve" smooth="yes"/>
      <point x="157" y="898"/>
      <point x="47" y="814"/>
      <point x="21" y="649" type="curve"/>
      <point x="118" y="649" type="line"/>
      <point x="128" y="711"/>
      <point x="163" y="752"/>
      <point x="244" y="752" type="curve" smooth="yes"/>
      <point x="315" y="752"/>
      <point x="419" y="635"/>
    </contour>
    <contour>
      <point x="604" y="941" type="curve" smooth="yes"/>
      <point x="724" y="941"/>
      <point x="834" y="1025"/>
      <point x="860" y="1190" type="curve"/>
      <point x="763" y="1190" type="line"/>
      <point x="753" y="1128"/>
      <point x="718" y="1087"/>
      <point x="637" y="1087" type="curve" smooth="yes"/>
      <point x="566" y="1087"/>
      <point x="462" y="1204"/>
      <point x="325" y="1204" type="curve" smooth="yes"/>
      <point x="205" y="1204"/>
      <point x="96" y="1120"/>
      <point x="70" y="955" type="curve"/>
      <point x="167" y="955" type="line"/>
      <point x="176" y="1017"/>
      <point x="212" y="1058"/>
      <point x="293" y="1058" type="curve" smooth="yes"/>
      <point x="364" y="1058"/>
      <point x="467" y="941"/>
    </contour>
  </outline>
</glyph>
<glyph name="caron.alt" format="1">
  <advance width="600"/>
  <outline>
    <contour>
      <point x="658" y="1222" type="line"/>
      <point x="724" y="1276"/>
      <point x="861" y="1419"/>
      <point x="891" y="1610" type="curve" smooth="yes"/>
      <point x="920" y="1793" type="line"/>
      <point x="663" y="1793" type="line"/>
      <point x="626" y="1560" type="line"/>
      <point x="767" y="1560" type="line"/>
      <point x="746" y="1428"/>
      <point x="639" y="1321"/>
      <point x="584" y="1266" type="curve"/>
    </contour>
    <contour>
      <point x="241" y="1060" type="move" name="_caron.alt"/>
    </contour>
  </outline>
</glyph>
